<svg width="275" height="365" viewBox="0 0 275 365" fill="none" xmlns="http://www.w3.org/2000/svg">
<g clip-path="url(#clip0_6_403)">
<path d="M53.9133 60.6104C53.9133 73.2391 43.8057 83.4175 31.2648 83.4175H4.07721V0.133789H26.6134C38.808 0.133789 48.6816 10.0766 48.6816 22.3566C48.6816 29.3778 45.4248 35.5791 40.4365 39.6693C48.4477 43.1752 53.9133 51.2519 53.9133 60.6104Z" fill="white"/>
<path d="M124.648 0.133789V50.7807C124.648 69.262 110.712 84.2374 93.3984 84.2374C76.0845 84.2374 62.0368 69.262 62.0368 50.7807V0.133789H124.648Z" fill="white"/>
<path d="M146.482 83.4175H135.102V0.133789H146.482V83.4175Z" fill="white"/>
<path d="M204.208 72.8904V83.4175H158.096V0.133789H185.976V72.8904H204.217H204.208Z" fill="white"/>
<path d="M233.473 0.133789C256.243 0.133789 274.596 18.8507 274.596 41.7804C274.596 64.71 256.243 83.4175 233.473 83.4175H212.331V0.133789H233.473Z" fill="white"/>
<path d="M66.6881 225.18L49.8421 180.96L33.2301 225.293L0.595703 140.492H98.63L66.6881 225.18Z" fill="white"/>
<path d="M118.143 223.776H106.763V140.492H118.143V223.776Z" fill="white"/>
<path d="M187.483 140.492V151.019H171.451V223.776H143.571V151.019H127.427V140.492H187.483Z" fill="white"/>
<path d="M263.337 140.492V223.776H254.746L230.122 188.915L205.377 223.776H196.786V140.492H205.153L230.122 175.815L255.326 140.492H263.337Z" fill="white"/>
<path d="M35.9068 279.097L71.1055 364.134H0.595703L35.9068 279.097Z" fill="white"/>
<path d="M90.6094 364.134H79.229V280.85H90.6094V364.134Z" fill="white"/>
<path d="M219.893 295.251C221.774 300.18 223.047 305.156 226.248 309.434C231.161 316.003 237.9 318.538 245.415 321.017C245.77 321.271 245.761 321.941 245.415 322.186C240.529 324.023 235.644 325.315 231.423 328.547C224.264 334.032 223.384 339.263 220.239 347.085C219.996 347.698 219.837 348.414 218.967 347.895C218.592 347.669 216.327 340.752 215.859 339.64C212.996 332.873 208.035 327.935 201.306 325.07C198.705 323.957 195.887 323.269 193.323 322.101L193.145 321.526L193.669 320.894C200.895 318.614 207.352 316.079 212.181 309.934C215.56 305.636 216.926 300.585 218.798 295.533C219.013 295.156 219.509 295.166 219.884 295.26L219.893 295.251Z" fill="white"/>
<path d="M250.244 279.107C251.61 283.715 253.473 287.777 257.862 290.133C259.481 291 261.25 291.349 262.888 292.103C263.543 292.404 263.431 292.659 262.813 292.96C261.821 293.441 260.37 293.724 259.313 294.186C255.672 295.76 253.248 298.21 251.676 301.867C251.358 302.602 250.637 305.306 250.347 305.655C250.178 305.863 250.047 305.9 249.785 305.853C249.523 305.806 248.279 301.688 247.97 301.037C246.716 298.408 244.198 295.826 241.587 294.563C240.52 294.044 237.45 293.29 236.805 292.772C236.645 292.64 236.636 292.452 236.683 292.282C236.748 292.075 240.249 291.019 240.829 290.765C246.06 288.465 248.213 284.441 249.701 279.107H250.235H250.244Z" fill="white"/>
<path d="M250.244 337.368C251.872 342.731 254.006 346.717 259.313 349.008C260.052 349.328 262.682 350.025 263.075 350.346C263.281 350.515 263.318 350.647 263.271 350.911C263.215 351.194 258.798 352.57 257.993 352.994C253.585 355.313 251.648 359.374 250.291 363.983C250.253 364.162 249.916 364.134 249.804 364.096C249.514 364.002 248.063 359.327 247.549 358.394C245.199 354.116 241.297 352.334 236.823 351.015C236.645 350.977 236.674 350.638 236.711 350.525C236.795 350.27 241.035 348.913 241.746 348.565C246.248 346.331 248.438 342.015 249.739 337.35H250.272L250.244 337.368Z" fill="white"/>
</g>
<defs>
<clipPath id="clip0_6_403">
<rect width="274" height="364" fill="white" transform="translate(0.595703 0.133789)"/>
</clipPath>
</defs>
</svg>