<svg width="43" height="43" viewBox="0 0 43 43" fill="none" xmlns="http://www.w3.org/2000/svg">
<path d="M16.6287 3.98946C17.7562 7.18976 18.5224 10.4249 20.4412 13.2089C23.385 17.4802 27.4311 19.1271 31.9375 20.7337C32.1509 20.8969 32.1459 21.3334 31.9375 21.4911C29.0105 22.6869 26.0751 23.5287 23.5497 25.6249C19.2566 29.1884 18.729 32.5904 16.8438 37.6724C16.6959 38.0722 16.6035 38.538 16.0793 38.1987C15.8524 38.052 14.4965 33.5587 14.2142 32.8362C12.4953 28.4364 9.52122 25.2288 5.49028 23.3636C3.931 22.6429 2.24067 22.1954 0.703232 21.4343L0.595703 21.0583L0.90991 20.6494C5.23993 19.1657 9.1146 17.5169 12.013 13.5262C14.0411 10.733 14.8577 7.44652 15.9801 4.16553C16.1078 3.91977 16.4052 3.92527 16.6321 3.9913L16.6287 3.98946Z" fill="#52A8AA"/>
<path d="M35.7282 0.133789C36.4436 2.76163 37.4239 5.0796 39.7264 6.42571C40.5779 6.92271 41.5048 7.1199 42.3637 7.55049C42.7076 7.72353 42.6487 7.8664 42.3214 8.03944C41.7991 8.31711 41.0414 8.47607 40.486 8.73765C38.5751 9.63505 37.3025 11.0355 36.4786 13.1221C36.3131 13.5426 35.9324 15.0819 35.7834 15.2831C35.697 15.3998 35.6234 15.426 35.4892 15.3938C35.3586 15.3636 34.6965 13.0195 34.5347 12.6472C33.8744 11.1442 32.5521 9.6753 31.1838 8.95294C30.6248 8.65716 29.01 8.22657 28.6735 7.93078C28.587 7.85633 28.5834 7.74567 28.6109 7.6511C28.6459 7.53037 30.4831 6.92874 30.7884 6.78387C33.536 5.47398 34.6634 3.17411 35.4487 0.133789H35.7301L35.7282 0.133789Z" fill="#52A8AA"/>
<path d="M35.7346 26.8694C36.5891 29.9291 37.7126 32.2002 40.5047 33.5098C40.8933 33.6929 42.2783 34.0892 42.4827 34.2722C42.5896 34.3668 42.6135 34.4472 42.584 34.5941C42.5527 34.753 40.234 35.5396 39.8067 35.783C37.4861 37.1046 36.4713 39.42 35.7548 42.0533C35.7383 42.1539 35.5559 42.1398 35.4988 42.1197C35.346 42.0653 34.5816 39.4019 34.3109 38.8688C33.0769 36.4287 31.0252 35.4108 28.6696 34.6585C28.5775 34.6404 28.5904 34.4412 28.6088 34.3788C28.6512 34.232 30.8834 33.4595 31.2554 33.2604C33.6221 31.989 34.775 29.5227 35.4565 26.8613L35.7346 26.8694Z" fill="#52A8AA"/>
</svg>
