<svg width="185" height="47" viewBox="0 0 185 47" fill="none" xmlns="http://www.w3.org/2000/svg">
<g clip-path="url(#clip0_3_533)">
<path d="M12.2923 23.1618C12.2923 23.716 12.2269 24.2294 12.0975 24.7051C11.9682 25.1808 11.7812 25.6125 11.5413 26.0019C11.2998 26.3897 11.0069 26.7351 10.6594 27.0365C10.312 27.3379 9.91935 27.5923 9.48154 27.8011C9.04372 28.0099 8.56851 28.1669 8.05746 28.2736C7.54642 28.3804 6.95435 28.4338 6.27971 28.4338H1.43567C1.26273 28.4338 1.08355 28.3678 0.901257 28.2375C0.717405 28.1056 0.627037 27.8654 0.627037 27.5169V10.5048C0.627037 10.1546 0.718963 9.91444 0.901257 9.78414C1.08355 9.65383 1.26273 9.58789 1.43567 9.58789H5.45393C6.54302 9.58789 7.42489 9.69936 8.09953 9.92229C8.77417 10.1452 9.3304 10.4639 9.76978 10.8768C10.2076 11.2897 10.5363 11.789 10.7529 12.3777C10.9695 12.9649 11.0786 13.618 11.0786 14.337C11.0786 14.7845 11.0287 15.2115 10.9274 15.6181C10.8261 16.0248 10.675 16.4047 10.4725 16.7548C10.2699 17.1049 10.0175 17.4205 9.71369 17.7015C9.40987 17.9825 9.05151 18.2211 8.63706 18.4158C9.13876 18.5131 9.61086 18.6953 10.0533 18.9622C10.4958 19.2291 10.8838 19.5666 11.2172 19.9748C11.5507 20.383 11.8124 20.8555 12.0056 21.3956C12.1988 21.9341 12.2954 22.5244 12.2954 23.165L12.2923 23.1618ZM9.19797 14.4516C9.19797 13.9571 9.13097 13.5081 8.99542 13.1046C8.85987 12.7011 8.64641 12.3573 8.35194 12.07C8.05746 11.7843 7.67418 11.5629 7.20208 11.4075C6.72999 11.2521 6.09897 11.1751 5.30903 11.1751H2.39077V17.9338H5.60039C6.30308 17.9338 6.87177 17.8396 7.30647 17.6497C7.73962 17.4597 8.09641 17.2054 8.37687 16.8851C8.65576 16.5648 8.86298 16.1927 8.99854 15.7704C9.13409 15.3481 9.20108 14.9085 9.20108 14.4516H9.19797ZM10.4133 23.3078C10.4133 22.6861 10.3151 22.1382 10.1172 21.6625C9.91935 21.1868 9.63111 20.788 9.24938 20.4678C8.86922 20.1475 8.39868 19.9041 7.83933 19.7393C7.27999 19.5744 6.58665 19.4912 5.75775 19.4912H2.39077V26.8465H6.46668C7.06342 26.8465 7.5916 26.7712 8.04967 26.6205C8.50774 26.4697 8.91128 26.2468 9.26341 25.9501C9.61553 25.6534 9.89442 25.2844 10.1016 24.8432C10.3089 24.4021 10.4117 23.8887 10.4117 23.3063L10.4133 23.3078Z" fill="white"/>
<path d="M29.8687 21.5024C29.8687 22.6485 29.7066 23.6674 29.3841 24.5607C29.0616 25.454 28.6004 26.206 28.0037 26.8183C27.4054 27.4306 26.684 27.8937 25.8348 28.2093C24.9873 28.5248 24.0368 28.6818 22.9867 28.6818C22.0332 28.6818 21.1528 28.5311 20.3489 28.2297C19.5434 27.9283 18.85 27.484 18.2673 26.8968C17.6846 26.3096 17.2312 25.5812 16.9087 24.7114C16.5861 23.8416 16.4241 22.84 16.4241 21.7033V9.87836C16.4241 9.82027 16.4381 9.76689 16.4677 9.71823C16.4973 9.66956 16.5472 9.63031 16.6189 9.60205C16.6905 9.57379 16.7809 9.54867 16.8869 9.52983C16.9928 9.51099 17.133 9.5 17.306 9.5C17.4696 9.5 17.6098 9.50942 17.7251 9.52983C17.8404 9.54867 17.9323 9.57379 17.9993 9.60205C18.0663 9.63188 18.1146 9.66956 18.1442 9.71823C18.1738 9.76689 18.1878 9.82027 18.1878 9.87836V21.4145C18.1878 22.3565 18.3016 23.1823 18.5275 23.8903C18.7534 24.5999 19.0822 25.1887 19.5106 25.6597C19.9391 26.1306 20.4595 26.4855 21.0718 26.7225C21.6841 26.9612 22.3744 27.0789 23.1456 27.0789C23.9169 27.0789 24.6227 26.9643 25.235 26.7367C25.8473 26.509 26.3646 26.162 26.7884 25.6958C27.2122 25.2295 27.5378 24.6502 27.7637 23.9547C27.9896 23.2608 28.1034 22.4475 28.1034 21.5149V9.87836C28.1034 9.82027 28.1174 9.76689 28.147 9.71823C28.1766 9.66956 28.2234 9.63031 28.2919 9.60205C28.3589 9.57222 28.4508 9.54867 28.5661 9.52983C28.6814 9.51099 28.8217 9.5 28.9853 9.5C29.1489 9.5 29.2891 9.50942 29.4044 9.52983C29.5197 9.54867 29.6116 9.57379 29.6786 9.60205C29.7456 9.63188 29.7939 9.66956 29.8235 9.71823C29.8531 9.76689 29.8671 9.82027 29.8671 9.87836V21.5008L29.8687 21.5024Z" fill="white"/>
<path d="M37.0529 28.1433C37.0529 28.2014 37.0389 28.2548 37.0093 28.3035C36.9797 28.3521 36.9314 28.3914 36.8644 28.4197C36.7974 28.4495 36.707 28.473 36.5964 28.4919C36.4858 28.5107 36.344 28.5217 36.1695 28.5217C36.0059 28.5217 35.8657 28.5123 35.7504 28.4919C35.6351 28.473 35.5432 28.4479 35.4762 28.4197C35.4092 28.3898 35.3609 28.3521 35.3313 28.3035C35.3017 28.2548 35.2876 28.2014 35.2876 28.1433V9.87836C35.2876 9.82027 35.3048 9.76689 35.3375 9.71823C35.3718 9.66956 35.4248 9.63031 35.4964 9.60205C35.5681 9.57379 35.66 9.54867 35.7706 9.52983C35.8813 9.51099 36.0137 9.5 36.1679 9.5C36.3409 9.5 36.4827 9.50942 36.5949 9.52983C36.7055 9.54867 36.7943 9.57379 36.8628 9.60205C36.9298 9.63188 36.9781 9.66956 37.0077 9.71823C37.0374 9.76689 37.0514 9.82027 37.0514 9.87836V28.1433H37.0529Z" fill="white"/>
<path d="M51.8982 27.619C51.8982 27.7556 51.8889 27.8717 51.8686 27.9691C51.8499 28.0664 51.8203 28.1512 51.7813 28.2234C51.7424 28.2956 51.6941 28.349 51.6364 28.3835C51.5788 28.4181 51.5118 28.4338 51.4339 28.4338H43.3242C43.1512 28.4338 42.972 28.3678 42.7897 28.2375C42.6059 28.1057 42.5155 27.8655 42.5155 27.5169V9.87836C42.5155 9.82027 42.5295 9.76689 42.5591 9.71823C42.5887 9.66956 42.6355 9.63031 42.704 9.60205C42.771 9.57222 42.863 9.54867 42.9783 9.52983C43.0936 9.51099 43.2338 9.5 43.3974 9.5C43.5703 9.5 43.7121 9.50942 43.8243 9.52983C43.9349 9.54867 44.0237 9.57379 44.0923 9.60205C44.1593 9.63188 44.2076 9.66956 44.2372 9.71823C44.2668 9.76689 44.2808 9.82027 44.2808 9.87836V26.8183H51.4355C51.5118 26.8183 51.5804 26.8356 51.638 26.8701C51.6957 26.9046 51.744 26.9533 51.7829 27.0161C51.8219 27.0789 51.8499 27.1621 51.8702 27.2642C51.8889 27.3662 51.8998 27.4855 51.8998 27.6205L51.8982 27.619Z" fill="white"/>
<path d="M68.6646 18.7345C68.6646 20.317 68.4667 21.7127 68.0725 22.9216C67.6768 24.1305 67.094 25.1431 66.3228 25.9579C65.5516 26.7743 64.5996 27.3897 63.4684 27.8073C62.3357 28.225 60.9849 28.4338 59.4143 28.4338H55.7279C55.555 28.4338 55.3758 28.3678 55.1935 28.2375C55.0097 28.1056 54.9193 27.8654 54.9193 27.5169V10.5048C54.9193 10.1546 55.0112 9.91444 55.1935 9.78414C55.3758 9.65383 55.555 9.58789 55.7279 9.58789H59.6589C61.2497 9.58789 62.5912 9.80612 63.685 10.2426C64.7788 10.679 65.6949 11.2992 66.4319 12.0998C67.1688 12.9005 67.7251 13.8629 68.1021 14.9839C68.4792 16.1048 68.6661 17.3561 68.6661 18.7345H68.6646ZM66.7715 18.8224C66.7715 17.725 66.6344 16.7077 66.3602 15.7704C66.086 14.8331 65.6622 14.0246 65.0888 13.3448C64.5154 12.665 63.7909 12.1344 62.9137 11.7497C62.0366 11.3667 60.9194 11.1751 59.5608 11.1751H56.6846V26.8465H59.5748C60.8462 26.8465 61.9244 26.6895 62.8047 26.374C63.685 26.0584 64.4204 25.5701 65.0093 24.9108C65.5967 24.2498 66.0377 23.4177 66.3321 22.4129C66.6266 21.4082 66.7731 20.2119 66.7731 18.8224H66.7715Z" fill="white"/>
<path d="M96.5197 28.1155C96.4901 28.194 96.4449 28.2583 96.3826 28.3117C96.3203 28.3651 96.2377 28.4059 96.1364 28.4357C96.0351 28.4656 95.9198 28.486 95.789 28.5017C95.6596 28.5158 95.507 28.5237 95.334 28.5237C95.1611 28.5237 95.0068 28.5158 94.8713 28.5017C94.7357 28.4876 94.6189 28.4656 94.5176 28.4357C94.4163 28.4059 94.3337 28.3651 94.2714 28.3117C94.2091 28.2583 94.1623 28.1924 94.1343 28.1155L89.7109 12.6325H89.6813L85.6335 28.1155C85.6148 28.194 85.5774 28.2583 85.5244 28.3117C85.4714 28.3651 85.3998 28.4059 85.3078 28.4357C85.2159 28.4656 85.1053 28.486 84.976 28.5017C84.8467 28.5158 84.6893 28.5237 84.5054 28.5237C84.3122 28.5237 84.1471 28.5158 84.0069 28.5017C83.8666 28.4876 83.7435 28.4656 83.6376 28.4357C83.5316 28.4059 83.4475 28.3651 83.3852 28.3117C83.3229 28.2583 83.2761 28.1924 83.2481 28.1155L77.9429 10.1865C77.8946 10.031 77.8712 9.91014 77.8712 9.82223C77.8712 9.73431 77.9023 9.6668 77.9647 9.61813C78.027 9.56946 78.1236 9.53806 78.2545 9.52393C78.3853 9.5098 78.5552 9.50195 78.7671 9.50195C78.979 9.50195 79.1472 9.5098 79.2734 9.52393C79.3981 9.53806 79.4947 9.56004 79.5632 9.58987C79.6302 9.6197 79.677 9.65738 79.7004 9.70605C79.7237 9.75472 79.7455 9.81281 79.7658 9.88032L84.4634 26.4121H84.4774L88.7995 9.88032C88.8182 9.81281 88.8431 9.75472 88.8711 9.70605C88.9007 9.65738 88.9506 9.61813 89.0223 9.58987C89.0939 9.56161 89.1952 9.53963 89.3261 9.52393C89.457 9.50823 89.6268 9.50195 89.8387 9.50195C90.0023 9.50195 90.1347 9.5098 90.236 9.52393C90.3373 9.53806 90.4183 9.56004 90.4822 9.58987C90.5445 9.6197 90.5928 9.65738 90.6271 9.70605C90.6614 9.75472 90.6878 9.81281 90.7065 9.88032L95.4182 26.4121H95.4478L100.03 9.88032C100.049 9.81281 100.071 9.75472 100.095 9.70605C100.119 9.65738 100.166 9.61813 100.233 9.58987C100.3 9.56004 100.391 9.53963 100.507 9.52393C100.622 9.50823 100.781 9.50195 100.984 9.50195C101.186 9.50195 101.364 9.51137 101.49 9.53178C101.615 9.55062 101.71 9.58516 101.772 9.63383C101.834 9.6825 101.869 9.75001 101.873 9.83793C101.878 9.92584 101.861 10.042 101.823 10.188L96.5181 28.117L96.5197 28.1155Z" fill="white"/>
<path d="M107.418 28.1433C107.418 28.2014 107.404 28.2548 107.375 28.3035C107.345 28.3521 107.297 28.3914 107.23 28.4197C107.163 28.4495 107.072 28.473 106.962 28.4919C106.851 28.5107 106.709 28.5217 106.535 28.5217C106.371 28.5217 106.231 28.5123 106.116 28.4919C106.001 28.473 105.909 28.4479 105.842 28.4197C105.775 28.3898 105.726 28.3521 105.697 28.3035C105.667 28.2548 105.653 28.2014 105.653 28.1433V9.87836C105.653 9.82027 105.67 9.76689 105.705 9.71823C105.739 9.66956 105.792 9.63031 105.863 9.60205C105.935 9.57222 106.027 9.54867 106.138 9.52983C106.248 9.51099 106.381 9.5 106.535 9.5C106.708 9.5 106.851 9.50942 106.962 9.52983C107.072 9.54867 107.161 9.57379 107.23 9.60205C107.297 9.63188 107.345 9.66956 107.375 9.71823C107.404 9.76689 107.418 9.82027 107.418 9.87836V28.1433Z" fill="white"/>
<path d="M124.214 10.4031C124.214 10.5287 124.205 10.6417 124.185 10.7375C124.166 10.8348 124.136 10.9149 124.097 10.9777C124.059 11.0405 124.01 11.0892 123.953 11.1237C123.895 11.1582 123.833 11.1739 123.764 11.1739H118.185V28.1421C118.185 28.2002 118.171 28.2536 118.141 28.3023C118.111 28.3509 118.063 28.3902 117.996 28.4184C117.929 28.4483 117.837 28.4718 117.722 28.4907C117.607 28.5095 117.466 28.5205 117.303 28.5205C117.139 28.5205 116.999 28.5111 116.884 28.4907C116.768 28.4718 116.676 28.4467 116.609 28.4184C116.542 28.3886 116.494 28.3509 116.465 28.3023C116.435 28.2536 116.421 28.2002 116.421 28.1421V11.1739H110.841C110.764 11.1739 110.7 11.1567 110.647 11.1237C110.594 11.0892 110.547 11.0421 110.51 10.9777C110.471 10.9149 110.443 10.8348 110.422 10.7375C110.404 10.6402 110.393 10.5287 110.393 10.4031C110.393 10.2665 110.402 10.1488 110.422 10.0467C110.441 9.94466 110.471 9.85988 110.51 9.79237C110.549 9.72486 110.594 9.67305 110.647 9.64008C110.7 9.60554 110.765 9.58984 110.841 9.58984H123.764C123.831 9.58984 123.893 9.60711 123.953 9.64008C124.01 9.67462 124.059 9.72486 124.097 9.79237C124.136 9.85988 124.164 9.94466 124.185 10.0467C124.203 10.1488 124.214 10.2681 124.214 10.4031Z" fill="white"/>
<path d="M140.057 28.1433C140.057 28.2014 140.043 28.2548 140.013 28.3035C139.984 28.3521 139.935 28.3914 139.868 28.4197C139.801 28.4495 139.709 28.473 139.594 28.4919C139.479 28.5107 139.339 28.5217 139.175 28.5217C139.002 28.5217 138.859 28.5123 138.748 28.4919C138.637 28.473 138.547 28.4479 138.48 28.4197C138.413 28.3898 138.365 28.3521 138.335 28.3035C138.306 28.2548 138.291 28.2014 138.291 28.1433V19.361H128.954V28.1433C128.954 28.2014 128.94 28.2548 128.91 28.3035C128.881 28.3521 128.832 28.3914 128.765 28.4197C128.698 28.4495 128.608 28.473 128.497 28.4919C128.387 28.5107 128.245 28.5217 128.071 28.5217C127.907 28.5217 127.767 28.5123 127.651 28.4919C127.536 28.473 127.444 28.4479 127.377 28.4197C127.31 28.3898 127.262 28.3521 127.232 28.3035C127.203 28.2548 127.189 28.2014 127.189 28.1433V9.87836C127.189 9.82027 127.203 9.76689 127.232 9.71823C127.262 9.66956 127.309 9.63031 127.377 9.60205C127.444 9.57222 127.536 9.54867 127.651 9.52983C127.767 9.51099 127.907 9.5 128.071 9.5C128.244 9.5 128.387 9.50942 128.497 9.52983C128.608 9.54867 128.697 9.57379 128.765 9.60205C128.832 9.63188 128.881 9.66956 128.91 9.71823C128.94 9.76689 128.954 9.82027 128.954 9.87836V17.7721H138.291V9.87836C138.291 9.82027 138.306 9.76689 138.335 9.71823C138.365 9.66956 138.411 9.63031 138.48 9.60205C138.547 9.57222 138.636 9.54867 138.748 9.52983C138.859 9.51099 139 9.5 139.175 9.5C139.339 9.5 139.479 9.50942 139.594 9.52983C139.709 9.54867 139.801 9.57379 139.868 9.60205C139.935 9.63188 139.984 9.66956 140.013 9.71823C140.043 9.76689 140.057 9.82027 140.057 9.87836V28.1433Z" fill="white"/>
<path d="M0.595703 37.8101H1.47134L4.14187 44.0821L6.85602 37.8101H7.73165L4.226 45.9284H4.0515L0.595703 37.8101Z" fill="white"/>
<path d="M12.9387 37.8101L16.6968 45.9284H15.8274L14.5607 43.2563H11.0893L9.83348 45.9284H8.93448L12.7408 37.8101H12.9387ZM12.8374 39.5355L11.457 42.4744H14.2117L12.8374 39.5355Z" fill="white"/>
<path d="M18.5057 37.8101H19.3112V45.1449H22.4118V45.9284H18.5057V37.8101Z" fill="white"/>
<path d="M23.4167 44.418L24.1007 44.0036C24.5822 44.8984 25.1399 45.3443 25.771 45.3443C26.0405 45.3443 26.2945 45.2815 26.5329 45.1544C26.7697 45.0272 26.9504 44.8576 27.0751 44.6441C27.1997 44.4306 27.262 44.2045 27.262 43.9659C27.262 43.6943 27.1701 43.4274 26.9878 43.1652C26.7354 42.8041 26.2758 42.3708 25.6074 41.8621C24.9358 41.3503 24.5167 40.9814 24.3531 40.7522C24.068 40.3691 23.9262 39.9562 23.9262 39.5103C23.9262 39.1571 24.0103 38.8352 24.1786 38.5448C24.3469 38.2544 24.5837 38.0251 24.8875 37.8572C25.1929 37.6892 25.5232 37.606 25.8816 37.606C26.2617 37.606 26.617 37.7002 26.9473 37.8901C27.2776 38.0801 27.6266 38.4286 27.9959 38.9357L27.3384 39.4381C27.0346 39.0331 26.7775 38.7662 26.564 38.6374C26.3506 38.5087 26.1168 38.4443 25.866 38.4443C25.5404 38.4443 25.2755 38.5432 25.0683 38.7426C24.8626 38.942 24.7582 39.1853 24.7582 39.4774C24.7582 39.6532 24.794 39.8243 24.8673 39.9907C24.9405 40.1556 25.0729 40.3361 25.2677 40.5324C25.3737 40.636 25.7211 40.906 26.3085 41.344C27.0065 41.8621 27.4848 42.3253 27.7435 42.7288C28.0021 43.1338 28.133 43.5404 28.133 43.9486C28.133 44.5374 27.9117 45.0492 27.4677 45.4825C27.0236 45.9158 26.4846 46.134 25.8489 46.134C25.3596 46.134 24.9156 46.0021 24.5183 45.74C24.121 45.4762 23.7533 45.0366 23.4167 44.418Z" fill="white"/>
<path d="M34.2344 37.606C35.4544 37.606 36.4764 38.0157 37.2976 38.8368C38.1187 39.6579 38.5315 40.6674 38.5315 41.8668C38.5315 43.0663 38.1218 44.0632 37.3007 44.8922C36.4796 45.7211 35.4793 46.134 34.2998 46.134C33.1204 46.134 32.0967 45.7227 31.2741 44.8969C30.4514 44.0711 30.0401 43.0757 30.0401 41.9061C30.0401 41.1258 30.227 40.4036 30.6025 39.7364C30.9765 39.0707 31.4875 38.5495 32.1341 38.1711C32.7807 37.7944 33.4803 37.606 34.2328 37.606H34.2344ZM34.2702 38.3957C33.6735 38.3957 33.1095 38.5526 32.575 38.8651C32.0406 39.1775 31.6246 39.5998 31.3239 40.1305C31.0248 40.6611 30.8736 41.2514 30.8736 41.903C30.8736 42.8685 31.2055 43.6833 31.8692 44.3474C32.533 45.0115 33.3338 45.3443 34.2702 45.3443C34.895 45.3443 35.4746 45.192 36.0059 44.8859C36.5388 44.5797 36.9532 44.1621 37.2508 43.6315C37.5484 43.1008 37.698 42.5121 37.698 41.8637C37.698 41.2153 37.5484 40.636 37.2508 40.1148C36.9532 39.5935 36.5325 39.1775 35.9919 38.8635C35.4512 38.5511 34.8763 38.3941 34.2687 38.3941L34.2702 38.3957Z" fill="white"/>
<path d="M40.7082 37.8101H44.7451V38.6045H41.5137V41.1494H44.7451V41.9438H41.5137V45.9284H40.7082V37.8101Z" fill="white"/>
<path d="M45.909 38.6059V37.8115H50.3246V38.6059H48.5281V45.9298H47.707V38.6059H45.9105H45.909Z" fill="white"/>
<path d="M55.7014 37.8101H56.507V41.2153H60.6094V37.8101H61.4149V45.9284H60.6094V42.0097H56.507V45.9284H55.7014V37.8101Z" fill="white"/>
<path d="M67.228 37.8101L70.9861 45.9284H70.1167L68.85 43.2563H65.3786L64.1228 45.9284H63.2238L67.0301 37.8101H67.228ZM67.1267 39.5355L65.7463 42.4744H68.501L67.1267 39.5355Z" fill="white"/>
<path d="M80.3002 39.3172L79.6645 39.8086C79.314 39.3486 78.8933 39.0001 78.4025 38.763C77.9117 38.526 77.3711 38.4066 76.7837 38.4066C76.1417 38.4066 75.545 38.5621 74.9981 38.8729C74.4512 39.1838 74.0259 39.6014 73.7252 40.1258C73.4245 40.6501 73.2733 41.2404 73.2733 41.8951C73.2733 42.8842 73.6099 43.7116 74.2845 44.3741C74.9592 45.0366 75.8083 45.3679 76.8351 45.3679C77.9631 45.3679 78.9073 44.922 79.6676 44.0318L80.3033 44.517C79.9014 45.0319 79.4012 45.4307 78.7998 45.7117C78.1984 45.9927 77.5284 46.134 76.7868 46.134C75.3767 46.134 74.2658 45.6615 73.451 44.7148C72.7685 43.9157 72.4273 42.9517 72.4273 41.8229C72.4273 40.6344 72.8402 39.6344 73.6675 38.8227C74.4949 38.011 75.531 37.606 76.7759 37.606C77.5284 37.606 78.2077 37.7567 78.8138 38.0565C79.4199 38.3564 79.9169 38.7772 80.3033 39.3172H80.3002Z" fill="white"/>
<path d="M82.4768 37.8101H83.2979V40.8574L86.5185 37.8101H87.5998L83.7295 41.4524L87.9005 45.9284H86.8285L83.2964 42.1463V45.9284H82.4753V37.8101H82.4768Z" fill="white"/>
<path d="M92.958 37.8101L96.716 45.9284H95.8466L94.5799 43.2563H91.1085L89.8527 45.9284H88.9537L92.7601 37.8101H92.958ZM92.8567 39.5355L91.4762 42.4744H94.2309L92.8567 39.5355Z" fill="white"/>
<path d="M97.7256 38.6059V37.8115H102.141V38.6059H100.345V45.9298H99.5237V38.6059H97.7272H97.7256Z" fill="white"/>
<path d="M103.852 37.8101H104.657V41.2153H108.76V37.8101H109.565V45.9284H108.76V42.0097H104.657V45.9284H103.852V37.8101Z" fill="white"/>
<path d="M115.924 37.606C117.144 37.606 118.166 38.0157 118.987 38.8368C119.81 39.6579 120.221 40.6674 120.221 41.8668C120.221 43.0663 119.811 44.0632 118.99 44.8922C118.171 45.7195 117.17 46.134 115.989 46.134C114.808 46.134 113.786 45.7227 112.964 44.8969C112.141 44.0711 111.73 43.0757 111.73 41.9061C111.73 41.1258 111.917 40.4036 112.292 39.7364C112.666 39.0707 113.177 38.5495 113.824 38.1711C114.47 37.7944 115.17 37.606 115.922 37.606H115.924ZM115.96 38.3957C115.363 38.3957 114.799 38.5526 114.265 38.8651C113.73 39.1775 113.314 39.5998 113.013 40.1305C112.714 40.6611 112.563 41.2514 112.563 41.903C112.563 42.8685 112.895 43.6833 113.559 44.3474C114.222 45.0115 115.023 45.3443 115.96 45.3443C116.584 45.3443 117.164 45.192 117.695 44.8859C118.228 44.5797 118.643 44.1621 118.94 43.6315C119.238 43.1008 119.387 42.5121 119.387 41.8637C119.387 41.2153 119.238 40.636 118.94 40.1148C118.643 39.5935 118.222 39.1775 117.681 38.8635C117.141 38.5511 116.566 38.3941 115.958 38.3941L115.96 38.3957Z" fill="white"/>
<path d="M122.402 45.9298V37.8115H122.577L127.94 44.0349V37.8115H128.734V45.9298H128.554L123.234 39.7818V45.9298H122.402Z" fill="white"/>
<path d="M134.47 37.8101H135.297L136.942 43.6613L139.253 37.8101H139.42L141.702 43.6613L143.375 37.8101H144.197L141.881 45.9284H141.732L139.34 39.7851L136.903 45.9284H136.754L134.47 37.8101Z" fill="white"/>
<path d="M146.259 37.8101H150.878V38.6045H147.065V41.1494H150.845V41.9438H147.065V45.134H150.845V45.9284H146.259V37.8101Z" fill="white"/>
<path d="M152.835 37.8101H157.453V38.6045H153.64V41.1494H157.42V41.9438H153.64V45.134H157.42V45.9284H152.835V37.8101Z" fill="white"/>
<path d="M159.403 37.8101H160.224V40.8574L163.445 37.8101H164.526L160.656 41.4524L164.827 45.9284H163.755L160.223 42.1463V45.9284H159.402V37.8101H159.403Z" fill="white"/>
<path d="M161.926 4.20166C162.971 6.94125 163.682 9.71067 165.461 12.0939C168.191 15.7503 171.943 17.1602 176.121 18.5354C176.319 18.6752 176.315 19.0488 176.121 19.1838C173.407 20.2075 170.685 20.9281 168.344 22.7225C164.363 25.773 163.873 28.6853 162.125 33.0357C161.988 33.3779 161.902 33.7767 161.416 33.4862C161.206 33.3606 159.949 29.5142 159.687 28.8957C158.093 25.1293 155.335 22.3834 151.597 20.7868C150.152 20.1698 148.584 19.7867 147.158 19.1352L147.059 18.8133L147.35 18.4632C151.365 17.1931 154.958 15.7817 157.646 12.3655C159.526 9.97442 160.284 7.16104 161.324 4.35237C161.443 4.142 161.719 4.14671 161.929 4.20323L161.926 4.20166Z" fill="#52A8AA"/>
<path d="M178.778 0.133789C179.384 2.18416 180.214 3.99277 182.165 5.04307C182.887 5.43085 183.672 5.58471 184.399 5.92068C184.691 6.0557 184.641 6.16717 184.364 6.30218C183.921 6.51884 183.279 6.64287 182.809 6.84696C181.19 7.54717 180.112 8.63986 179.414 10.2679C179.273 10.596 178.951 11.7971 178.825 11.9541C178.751 12.0451 178.689 12.0655 178.575 12.0404C178.465 12.0169 177.904 10.1878 177.767 9.89741C177.207 8.72464 176.087 7.57857 174.928 7.01495C174.454 6.78416 173.086 6.44819 172.801 6.21741C172.728 6.15932 172.725 6.07297 172.748 5.99918C172.778 5.90498 174.334 5.43556 174.593 5.32253C176.921 4.30048 177.876 2.50601 178.541 0.133789H178.779L178.778 0.133789Z" fill="#52A8AA"/>
<path d="M178.772 25.6977C179.495 28.0856 180.445 29.8581 182.807 30.8801C183.136 31.023 184.307 31.3323 184.48 31.4752C184.571 31.549 184.591 31.6117 184.566 31.7264C184.54 31.8504 182.578 32.4642 182.217 32.6542C180.253 33.6857 179.395 35.4927 178.789 37.5478C178.775 37.6263 178.621 37.6153 178.572 37.5996C178.443 37.5572 177.796 35.4786 177.567 35.0625C176.523 33.1582 174.788 32.3638 172.795 31.7766C172.717 31.7625 172.728 31.607 172.743 31.5584C172.779 31.4438 174.668 30.8409 174.982 30.6855C176.985 29.6933 177.96 27.7685 178.536 25.6914L178.772 25.6977Z" fill="#52A8AA"/>
<path d="M163.291 21.7805C163.334 21.914 163.362 22.0192 163.373 22.0961C163.384 22.173 163.37 22.2327 163.33 22.2704C163.289 22.3096 163.217 22.3332 163.115 22.3426C163.012 22.352 162.87 22.3567 162.691 22.3567C162.512 22.3567 162.357 22.3536 162.253 22.3489C162.149 22.3426 162.069 22.3316 162.013 22.3159C161.959 22.2986 161.92 22.2767 161.898 22.2468C161.876 22.217 161.857 22.1777 161.843 22.1306L161.363 20.6878H158.688L158.236 22.0914C158.222 22.1432 158.202 22.1872 158.179 22.2217C158.155 22.2562 158.116 22.2845 158.063 22.3049C158.01 22.3253 157.936 22.3395 157.837 22.3473C157.741 22.3552 157.613 22.3583 157.454 22.3583C157.286 22.3583 157.153 22.352 157.058 22.341C156.963 22.33 156.896 22.3033 156.861 22.261C156.823 22.2186 156.811 22.1589 156.822 22.0804C156.833 22.0035 156.861 21.8999 156.904 21.7696L159.101 15.4002C159.123 15.3374 159.149 15.2872 159.179 15.2479C159.209 15.2087 159.255 15.1788 159.319 15.1584C159.383 15.138 159.472 15.1255 159.586 15.1192C159.699 15.1129 159.85 15.1113 160.037 15.1113C160.254 15.1113 160.427 15.1145 160.555 15.1192C160.683 15.1255 160.784 15.138 160.855 15.1584C160.927 15.1788 160.979 15.2087 161.01 15.2495C161.041 15.2903 161.067 15.3453 161.089 15.4159L163.292 21.7805H163.291ZM160.02 16.5149H160.014L159.006 19.5669H161.027L160.019 16.5149H160.02Z" fill="white"/>
<path d="M165.742 22.1245C165.742 22.1622 165.729 22.1951 165.706 22.225C165.682 22.2548 165.642 22.2783 165.587 22.2972C165.533 22.316 165.458 22.3301 165.368 22.3411C165.277 22.3521 165.159 22.3584 165.015 22.3584C164.872 22.3584 164.76 22.3521 164.666 22.3411C164.573 22.3301 164.498 22.316 164.444 22.2972C164.389 22.2783 164.349 22.2548 164.325 22.225C164.302 22.1951 164.289 22.1622 164.289 22.1245V15.3438C164.289 15.3061 164.302 15.2731 164.325 15.2433C164.349 15.2135 164.389 15.1899 164.447 15.1711C164.504 15.1523 164.578 15.1381 164.67 15.1271C164.762 15.1161 164.877 15.1099 165.017 15.1099C165.157 15.1099 165.277 15.1161 165.369 15.1271C165.461 15.1381 165.534 15.1538 165.589 15.1711C165.643 15.1899 165.684 15.2135 165.707 15.2433C165.731 15.2731 165.743 15.3061 165.743 15.3438V22.1245H165.742Z" fill="white"/>
</g>
<defs>
<clipPath id="clip0_3_533">
<rect width="184" height="46" fill="white" transform="translate(0.595703 0.133789)"/>
</clipPath>
</defs>
</svg>