<svg width="186" height="47" viewBox="0 0 186 47" fill="none" xmlns="http://www.w3.org/2000/svg">
<g clip-path="url(#clip0_6_266)">
<path d="M12.3557 23.662C12.3557 24.2162 12.2899 24.7296 12.1599 25.2053C12.0298 25.681 11.8419 26.1128 11.6006 26.5021C11.3578 26.8899 11.0633 27.2353 10.714 27.5367C10.3646 27.8382 9.96985 28.0925 9.52965 28.3013C9.08946 28.5101 8.61166 28.6671 8.09784 28.7739C7.58402 28.8806 6.98873 28.934 6.31042 28.934H1.44007C1.26618 28.934 1.08603 28.8681 0.902743 28.7377C0.717892 28.6059 0.627033 28.3657 0.627033 28.0171V11.005C0.627033 10.6549 0.719459 10.4147 0.902743 10.2844C1.08603 10.1541 1.26618 10.0881 1.44007 10.0881H5.48016C6.57517 10.0881 7.46183 10.1996 8.14014 10.4225C8.81845 10.6455 9.3777 10.9642 9.81946 11.3771C10.2597 11.79 10.5902 12.2892 10.8079 12.878C11.0257 13.4651 11.1354 14.1182 11.1354 14.8373C11.1354 15.2847 11.0852 15.7117 10.9834 16.1184C10.8816 16.525 10.7296 16.9049 10.526 17.255C10.3223 17.6051 10.0685 17.9207 9.76307 18.2017C9.45759 18.4827 9.09729 18.7214 8.68059 18.916C9.18502 19.0134 9.65968 19.1955 10.1046 19.4624C10.5495 19.7293 10.9395 20.0668 11.2748 20.475C11.61 20.8832 11.8732 21.3558 12.0674 21.8958C12.2617 22.4343 12.3588 23.0246 12.3588 23.6652L12.3557 23.662ZM9.24454 14.9519C9.24454 14.4573 9.17718 14.0083 9.04089 13.6048C8.90461 13.2014 8.68999 12.8575 8.39392 12.5702C8.09784 12.2845 7.71247 12.0631 7.23781 11.9077C6.76315 11.7523 6.12871 11.6754 5.33447 11.6754H2.40035V18.4341H5.62741C6.33392 18.4341 6.90571 18.3399 7.34277 18.1499C7.77827 17.9599 8.137 17.7056 8.41898 17.3853C8.69939 17.0651 8.90774 16.693 9.04403 16.2706C9.18032 15.8483 9.24768 15.4087 9.24768 14.9519H9.24454ZM10.4664 23.8081C10.4664 23.1863 10.3678 22.6384 10.1688 22.1627C9.96985 21.687 9.68004 21.2883 9.29624 20.968C8.91401 20.6477 8.44091 20.4044 7.87853 20.2395C7.31614 20.0747 6.61903 19.9915 5.78563 19.9915H2.40035V27.3468H6.49841C7.09839 27.3468 7.62945 27.2714 8.09001 27.1207C8.55057 26.97 8.9563 26.747 9.31034 26.4503C9.66438 26.1536 9.94479 25.7846 10.1531 25.3435C10.3615 24.9023 10.4649 24.3889 10.4649 23.8065L10.4664 23.8081Z" fill="#1A1A1A"/>
<path d="M30.0278 22.0026C30.0278 23.1487 29.8649 24.1676 29.5406 25.0609C29.2163 25.9542 28.7526 26.7062 28.1526 27.3185C27.5511 27.9308 26.8258 28.3939 25.972 28.7095C25.1198 29.0251 24.1642 29.182 23.1084 29.182C22.1497 29.182 21.2646 29.0313 20.4562 28.7299C19.6463 28.4285 18.9492 27.9842 18.3634 27.397C17.7775 26.8098 17.3216 26.0814 16.9973 25.2116C16.6731 24.3418 16.5101 23.3402 16.5101 22.2036V10.3786C16.5101 10.3205 16.5242 10.2671 16.554 10.2184C16.5838 10.1698 16.6339 10.1305 16.706 10.1023C16.778 10.074 16.8689 10.0489 16.9754 10.03C17.0819 10.0112 17.2229 10.0002 17.3968 10.0002C17.5613 10.0002 17.7023 10.0096 17.8182 10.03C17.9341 10.0489 18.0265 10.074 18.0939 10.1023C18.1613 10.1321 18.2098 10.1698 18.2396 10.2184C18.2694 10.2671 18.2835 10.3205 18.2835 10.3786V21.9147C18.2835 22.8567 18.3978 23.6825 18.625 24.3905C18.8521 25.1001 19.1826 25.6889 19.6134 26.1599C20.0442 26.6309 20.5675 26.9857 21.1831 27.2227C21.7988 27.4614 22.4927 27.5791 23.2682 27.5791C24.0436 27.5791 24.7532 27.4645 25.3689 27.2369C25.9845 27.0092 26.5046 26.6623 26.9307 26.196C27.3568 25.7297 27.6842 25.1504 27.9114 24.4549C28.1385 23.761 28.2529 22.9477 28.2529 22.0152V10.3786C28.2529 10.3205 28.267 10.2671 28.2968 10.2184C28.3265 10.1698 28.3735 10.1305 28.4424 10.1023C28.5098 10.0724 28.6022 10.0489 28.7182 10.03C28.8341 10.0112 28.9751 10.0002 29.1396 10.0002C29.304 10.0002 29.445 10.0096 29.5609 10.03C29.6769 10.0489 29.7693 10.074 29.8367 10.1023C29.904 10.1321 29.9526 10.1698 29.9823 10.2184C30.0121 10.2671 30.0262 10.3205 30.0262 10.3786V22.001L30.0278 22.0026Z" fill="#1A1A1A"/>
<path d="M37.2511 28.6436C37.2511 28.7016 37.237 28.755 37.2072 28.8037C37.1774 28.8524 37.1289 28.8916 37.0615 28.9199C36.9942 28.9497 36.9033 28.9732 36.7921 28.9921C36.6808 29.0109 36.5383 29.0219 36.3628 29.0219C36.1984 29.0219 36.0574 29.0125 35.9414 28.9921C35.8255 28.9732 35.7331 28.9481 35.6657 28.9199C35.5984 28.89 35.5498 28.8524 35.52 28.8037C35.4903 28.755 35.4762 28.7016 35.4762 28.6436V10.3786C35.4762 10.3205 35.4934 10.2671 35.5263 10.2184C35.5608 10.1698 35.614 10.1305 35.6861 10.1023C35.7582 10.074 35.8506 10.0489 35.9618 10.03C36.073 10.0112 36.2062 10.0002 36.3613 10.0002C36.5352 10.0002 36.6777 10.0096 36.7905 10.03C36.9017 10.0489 36.991 10.074 37.0599 10.1023C37.1273 10.1321 37.1759 10.1698 37.2056 10.2184C37.2354 10.2671 37.2495 10.3205 37.2495 10.3786V28.6436H37.2511Z" fill="#1A1A1A"/>
<path d="M52.177 28.1192C52.177 28.2558 52.1676 28.3719 52.1473 28.4693C52.1285 28.5666 52.0987 28.6514 52.0595 28.7236C52.0204 28.7958 51.9718 28.8492 51.9138 28.8838C51.8559 28.9183 51.7885 28.934 51.7102 28.934H43.5564C43.3825 28.934 43.2023 28.8681 43.0191 28.7377C42.8342 28.6059 42.7433 28.3657 42.7433 28.0171V10.3786C42.7433 10.3205 42.7574 10.2671 42.7872 10.2184C42.817 10.1698 42.864 10.1305 42.9329 10.1023C43.0003 10.0724 43.0927 10.0489 43.2086 10.03C43.3245 10.0112 43.4655 10.0002 43.63 10.0002C43.8039 10.0002 43.9464 10.0096 44.0592 10.03C44.1705 10.0489 44.2597 10.074 44.3287 10.1023C44.396 10.1321 44.4446 10.1698 44.4744 10.2184C44.5041 10.2671 44.5182 10.3205 44.5182 10.3786V27.3185H51.7118C51.7885 27.3185 51.8574 27.3358 51.9154 27.3703C51.9734 27.4048 52.0219 27.4535 52.0611 27.5163C52.1003 27.5791 52.1285 27.6623 52.1488 27.7644C52.1676 27.8664 52.1786 27.9857 52.1786 28.1208L52.177 28.1192Z" fill="#1A1A1A"/>
<path d="M69.0345 19.2347C69.0345 20.8173 68.8356 22.213 68.4392 23.4218C68.0413 24.6307 67.4554 25.6433 66.68 26.4582C65.9046 27.2745 64.9474 27.89 63.8101 28.3076C62.6712 28.7252 61.3131 28.934 59.734 28.934H56.0276C55.8537 28.934 55.6735 28.8681 55.4902 28.7377C55.3054 28.6059 55.2145 28.3657 55.2145 28.0171V11.005C55.2145 10.6549 55.307 10.4147 55.4902 10.2844C55.6735 10.1541 55.8537 10.0881 56.0276 10.0881H59.9799C61.5794 10.0881 62.9282 10.3063 64.0279 10.7428C65.1276 11.1792 66.0487 11.7994 66.7897 12.6001C67.5306 13.4008 68.0899 14.3631 68.469 15.4841C68.8481 16.6051 69.0361 17.8563 69.0361 19.2347H69.0345ZM67.1312 19.3227C67.1312 18.2253 66.9933 17.2079 66.7176 16.2706C66.4419 15.3334 66.0158 14.5248 65.4393 13.8451C64.8628 13.1653 64.1344 12.6346 63.2524 12.25C62.3705 11.8669 61.2473 11.6754 59.8812 11.6754H56.9894V27.3468H59.8953C61.1736 27.3468 62.2577 27.1898 63.1428 26.8742C64.0279 26.5586 64.7673 26.0704 65.3594 25.411C65.95 24.75 66.3933 23.918 66.6894 22.9132C66.9855 21.9084 67.1327 20.7121 67.1327 19.3227H67.1312Z" fill="#1A1A1A"/>
<path d="M97.041 28.6153C97.0113 28.6938 96.9658 28.7582 96.9032 28.8115C96.8405 28.8649 96.7575 28.9057 96.6557 28.9356C96.5538 28.9654 96.4379 28.9858 96.3063 29.0015C96.1763 29.0156 96.0228 29.0235 95.8489 29.0235C95.675 29.0235 95.5199 29.0156 95.3836 29.0015C95.2474 28.9874 95.1299 28.9654 95.028 28.9356C94.9262 28.9057 94.8432 28.8649 94.7805 28.8115C94.7179 28.7582 94.6709 28.6922 94.6427 28.6153L90.1953 13.1323H90.1655L86.0956 28.6153C86.0768 28.6938 86.0393 28.7582 85.986 28.8115C85.9327 28.8649 85.8607 28.9057 85.7682 28.9356C85.6758 28.9654 85.5646 28.9858 85.4346 29.0015C85.3045 29.0156 85.1463 29.0235 84.9615 29.0235C84.7672 29.0235 84.6012 29.0156 84.4602 29.0015C84.3192 28.9874 84.1954 28.9654 84.0889 28.9356C83.9824 28.9057 83.8978 28.8649 83.8351 28.8115C83.7725 28.7582 83.7255 28.6922 83.6973 28.6153L78.3632 10.6863C78.3147 10.5309 78.2912 10.41 78.2912 10.322C78.2912 10.2341 78.3225 10.1666 78.3852 10.118C78.4478 10.0693 78.5449 10.0379 78.6765 10.0238C78.8081 10.0096 78.9789 10.0018 79.1919 10.0018C79.405 10.0018 79.5742 10.0096 79.7011 10.0238C79.8264 10.0379 79.9235 10.0599 79.9924 10.0897C80.0598 10.1195 80.1068 10.1572 80.1303 10.2059C80.1538 10.2545 80.1757 10.3126 80.1961 10.3801L84.9192 26.9119H84.9333L89.2788 10.3801C89.2976 10.3126 89.3227 10.2545 89.3509 10.2059C89.3807 10.1572 89.4308 10.118 89.5029 10.0897C89.5749 10.0614 89.6767 10.0395 89.8083 10.0238C89.9399 10.0081 90.1107 10.0018 90.3237 10.0018C90.4882 10.0018 90.6214 10.0096 90.7232 10.0238C90.825 10.0379 90.9065 10.0599 90.9707 10.0897C91.0334 10.1195 91.0819 10.1572 91.1164 10.2059C91.1509 10.2545 91.1775 10.3126 91.1963 10.3801L95.9335 26.9119H95.9633L100.57 10.3801C100.589 10.3126 100.611 10.2545 100.636 10.2059C100.66 10.1572 100.707 10.118 100.774 10.0897C100.841 10.0599 100.934 10.0395 101.05 10.0238C101.166 10.0081 101.326 10.0018 101.529 10.0018C101.733 10.0018 101.911 10.0112 102.038 10.0316C102.164 10.0504 102.259 10.085 102.322 10.1337C102.384 10.1823 102.419 10.2498 102.424 10.3377C102.428 10.4257 102.411 10.5418 102.374 10.6878L97.0395 28.6169L97.041 28.6153Z" fill="#1A1A1A"/>
<path d="M107.999 28.6436C107.999 28.7016 107.985 28.755 107.955 28.8037C107.925 28.8524 107.877 28.8916 107.809 28.9199C107.742 28.9497 107.651 28.9732 107.54 28.9921C107.429 29.0109 107.286 29.0219 107.111 29.0219C106.946 29.0219 106.805 29.0125 106.689 28.9921C106.573 28.9732 106.481 28.9481 106.414 28.9199C106.346 28.89 106.298 28.8524 106.268 28.8037C106.238 28.755 106.224 28.7016 106.224 28.6436V10.3786C106.224 10.3205 106.241 10.2671 106.276 10.2184C106.31 10.1698 106.363 10.1305 106.436 10.1023C106.508 10.0724 106.6 10.0489 106.711 10.03C106.822 10.0112 106.956 10.0002 107.111 10.0002C107.285 10.0002 107.429 10.0096 107.54 10.03C107.651 10.0489 107.74 10.074 107.809 10.1023C107.877 10.1321 107.925 10.1698 107.955 10.2184C107.985 10.2671 107.999 10.3205 107.999 10.3786V28.6436Z" fill="#1A1A1A"/>
<path d="M124.886 10.9029C124.886 11.0285 124.877 11.1416 124.856 11.2373C124.838 11.3347 124.808 11.4147 124.769 11.4775C124.73 11.5403 124.681 11.589 124.623 11.6235C124.565 11.6581 124.502 11.6738 124.433 11.6738H118.824V28.642C118.824 28.7001 118.81 28.7534 118.78 28.8021C118.75 28.8508 118.702 28.89 118.634 28.9183C118.567 28.9481 118.474 28.9717 118.358 28.9905C118.243 29.0094 118.102 29.0203 117.937 29.0203C117.773 29.0203 117.632 29.0109 117.516 28.9905C117.4 28.9717 117.307 28.9466 117.24 28.9183C117.173 28.8885 117.124 28.8508 117.094 28.8021C117.064 28.7534 117.05 28.7001 117.05 28.642V11.6738H111.441C111.362 11.6738 111.298 11.6565 111.245 11.6235C111.192 11.589 111.145 11.5419 111.107 11.4775C111.068 11.4147 111.04 11.3347 111.019 11.2373C111 11.14 110.989 11.0285 110.989 10.9029C110.989 10.7663 110.999 10.6486 111.019 10.5466C111.038 10.4445 111.068 10.3597 111.107 10.2922C111.146 10.2247 111.192 10.1729 111.245 10.1399C111.298 10.1054 111.364 10.0897 111.441 10.0897H124.433C124.501 10.0897 124.563 10.107 124.623 10.1399C124.681 10.1745 124.73 10.2247 124.769 10.2922C124.808 10.3597 124.836 10.4445 124.856 10.5466C124.875 10.6486 124.886 10.7679 124.886 10.9029Z" fill="#1A1A1A"/>
<path d="M140.815 28.6436C140.815 28.7016 140.801 28.755 140.771 28.8037C140.741 28.8524 140.693 28.8916 140.625 28.9199C140.558 28.9497 140.465 28.9732 140.349 28.9921C140.234 29.0109 140.093 29.0219 139.928 29.0219C139.754 29.0219 139.61 29.0125 139.499 28.9921C139.388 28.9732 139.297 28.9481 139.229 28.9199C139.162 28.89 139.113 28.8524 139.084 28.8037C139.054 28.755 139.04 28.7016 139.04 28.6436V19.8612H129.652V28.6436C129.652 28.7016 129.637 28.755 129.608 28.8037C129.578 28.8524 129.529 28.8916 129.462 28.9199C129.395 28.9497 129.304 28.9732 129.193 28.9921C129.081 29.0109 128.939 29.0219 128.763 29.0219C128.599 29.0219 128.458 29.0125 128.342 28.9921C128.226 28.9732 128.134 28.9481 128.066 28.9199C127.999 28.89 127.95 28.8524 127.921 28.8037C127.891 28.755 127.877 28.7016 127.877 28.6436V10.3786C127.877 10.3205 127.891 10.2671 127.921 10.2184C127.95 10.1698 127.997 10.1305 128.066 10.1023C128.134 10.0724 128.226 10.0489 128.342 10.03C128.458 10.0112 128.599 10.0002 128.763 10.0002C128.937 10.0002 129.081 10.0096 129.193 10.03C129.304 10.0489 129.393 10.074 129.462 10.1023C129.529 10.1321 129.578 10.1698 129.608 10.2184C129.637 10.2671 129.652 10.3205 129.652 10.3786V18.2724H139.04V10.3786C139.04 10.3205 139.054 10.2671 139.084 10.2184C139.113 10.1698 139.16 10.1305 139.229 10.1023C139.297 10.0724 139.386 10.0489 139.499 10.03C139.61 10.0112 139.753 10.0002 139.928 10.0002C140.093 10.0002 140.234 10.0096 140.349 10.03C140.465 10.0489 140.558 10.074 140.625 10.1023C140.693 10.1321 140.741 10.1698 140.771 10.2184C140.801 10.2671 140.815 10.3205 140.815 10.3786V28.6436Z" fill="#1A1A1A"/>
<path d="M0.595703 38.3098H1.4761L4.16114 44.5818L6.89004 38.3098H7.77044L4.24573 46.4281H4.07028L0.595703 38.3098Z" fill="#1A1A1A"/>
<path d="M13.0058 38.3098L16.7843 46.4281H15.9102L14.6366 43.756H11.1463L9.88369 46.4281H8.9798L12.8068 38.3098H13.0058ZM12.904 40.0352L11.516 42.9742H14.2857L12.904 40.0352Z" fill="#1A1A1A"/>
<path d="M18.603 38.3098H19.4129V45.6447H22.5303V46.4281H18.603V38.3098Z" fill="#1A1A1A"/>
<path d="M23.5407 44.9178L24.2285 44.5033C24.7125 45.3982 25.2733 45.8441 25.9078 45.8441C26.1788 45.8441 26.4341 45.7813 26.6738 45.6541C26.9119 45.527 27.0937 45.3574 27.219 45.1439C27.3443 44.9304 27.407 44.7043 27.407 44.4657C27.407 44.1941 27.3145 43.9272 27.1312 43.665C26.8775 43.3039 26.4153 42.8706 25.7433 42.3619C25.0681 41.8501 24.6467 41.4812 24.4822 41.2519C24.1956 40.8689 24.053 40.456 24.053 40.0101C24.053 39.6569 24.1376 39.335 24.3068 39.0446C24.476 38.7541 24.7141 38.5249 25.0196 38.3569C25.3266 38.1889 25.6587 38.1057 26.019 38.1057C26.4012 38.1057 26.7584 38.1999 27.0905 38.3899C27.4226 38.5799 27.7735 38.9284 28.1448 39.4355L27.4837 39.9379C27.1782 39.5328 26.9198 39.2659 26.7051 39.1372C26.4905 39.0085 26.2556 38.9441 26.0033 38.9441C25.6759 38.9441 25.4096 39.043 25.2013 39.2424C24.9945 39.4418 24.8895 39.6851 24.8895 39.9771C24.8895 40.153 24.9256 40.3241 24.9992 40.4905C25.0728 40.6554 25.206 40.8359 25.4018 41.0322C25.5083 41.1358 25.8577 41.4058 26.4482 41.8438C27.15 42.3619 27.631 42.8251 27.891 43.2285C28.1511 43.6336 28.2827 44.0402 28.2827 44.4484C28.2827 45.0371 28.0602 45.5489 27.6137 45.9823C27.1673 46.4156 26.6253 46.6338 25.9861 46.6338C25.4942 46.6338 25.0478 46.5019 24.6483 46.2397C24.2488 45.976 23.8791 45.5364 23.5407 44.9178Z" fill="#1A1A1A"/>
<path d="M34.4172 38.1057C35.6438 38.1057 36.6714 38.5155 37.497 39.3366C38.3226 40.1577 38.7377 41.1672 38.7377 42.3666C38.7377 43.5661 38.3257 44.563 37.5001 45.3919C36.6746 46.2209 35.6689 46.6338 34.483 46.6338C33.2971 46.6338 32.2679 46.2225 31.4408 45.3967C30.6137 44.5709 30.2001 43.5755 30.2001 42.4059C30.2001 41.6256 30.3881 40.9034 30.7656 40.2362C31.1416 39.5705 31.6554 39.0493 32.3055 38.6709C32.9556 38.2941 33.659 38.1057 34.4156 38.1057H34.4172ZM34.4532 38.8954C33.8533 38.8954 33.2862 39.0524 32.7488 39.3648C32.2115 39.6773 31.7933 40.0996 31.4909 40.6302C31.1901 41.1609 31.0382 41.7512 31.0382 42.4027C31.0382 43.3683 31.3719 44.1831 32.0392 44.8472C32.7065 45.5113 33.5117 45.8441 34.4532 45.8441C35.0814 45.8441 35.6642 45.6918 36.1984 45.3857C36.7341 45.0795 37.1508 44.6619 37.45 44.1313C37.7492 43.6006 37.8996 43.0119 37.8996 42.3635C37.8996 41.7151 37.7492 41.1358 37.45 40.6145C37.1508 40.0933 36.7278 39.6773 36.1843 39.3633C35.6407 39.0509 35.0626 38.8939 34.4517 38.8939L34.4532 38.8954Z" fill="#1A1A1A"/>
<path d="M40.9262 38.3098H44.9851V39.1042H41.7361V41.6491H44.9851V42.4436H41.7361V46.4281H40.9262V38.3098Z" fill="#1A1A1A"/>
<path d="M46.1553 39.1058V38.3114H50.5948V39.1058H48.7886V46.4297H47.963V39.1058H46.1568H46.1553Z" fill="#1A1A1A"/>
<path d="M56.0009 38.3098H56.8108V41.7151H60.9355V38.3098H61.7454V46.4281H60.9355V42.5095H56.8108V46.4281H56.0009V38.3098Z" fill="#1A1A1A"/>
<path d="M67.5902 38.3098L71.3686 46.4281H70.4945L69.2209 43.756H65.7307L64.4681 46.4281H63.5642L67.3912 38.3098H67.5902ZM67.4883 40.0352L66.1004 42.9742H68.87L67.4883 40.0352Z" fill="#1A1A1A"/>
<path d="M80.7334 39.817L80.0942 40.3084C79.7418 39.8484 79.3188 39.4999 78.8254 39.2628C78.3319 39.0257 77.7883 38.9064 77.1977 38.9064C76.5523 38.9064 75.9523 39.0618 75.4025 39.3727C74.8526 39.6835 74.425 40.1012 74.1226 40.6255C73.8203 41.1499 73.6683 41.7402 73.6683 42.3949C73.6683 43.384 74.0067 44.2113 74.685 44.8739C75.3633 45.5364 76.2171 45.8676 77.2494 45.8676C78.3836 45.8676 79.3329 45.4218 80.0974 44.5316L80.7365 45.0167C80.3324 45.5317 79.8295 45.9304 79.2248 46.2115C78.6201 46.4925 77.9465 46.6338 77.2009 46.6338C75.7831 46.6338 74.6662 46.1612 73.8469 45.2145C73.1608 44.4154 72.8177 43.4515 72.8177 42.3227C72.8177 41.1342 73.2328 40.1341 74.0646 39.3225C74.8965 38.5108 75.9382 38.1057 77.1899 38.1057C77.9465 38.1057 78.6295 38.2565 79.2389 38.5563C79.8483 38.8562 80.348 39.2769 80.7365 39.817H80.7334Z" fill="#1A1A1A"/>
<path d="M82.9219 38.3098H83.7474V41.3571L86.9854 38.3098H88.0726L84.1813 41.9522L88.375 46.4281H87.2972L83.7458 42.6461V46.4281H82.9203V38.3098H82.9219Z" fill="#1A1A1A"/>
<path d="M93.4599 38.3098L97.2384 46.4281H96.3643L95.0907 43.756H91.6005L90.3378 46.4281H89.4339L93.261 38.3098H93.4599ZM93.3581 40.0352L91.9702 42.9742H94.7398L93.3581 40.0352Z" fill="#1A1A1A"/>
<path d="M98.2535 39.1058V38.3114H102.693V39.1058H100.887V46.4297H100.061V39.1058H98.2551H98.2535Z" fill="#1A1A1A"/>
<path d="M104.413 38.3098H105.223V41.7151H109.348V38.3098H110.158V46.4281H109.348V42.5095H105.223V46.4281H104.413V38.3098Z" fill="#1A1A1A"/>
<path d="M116.551 38.1057C117.777 38.1057 118.805 38.5155 119.63 39.3366C120.458 40.1577 120.871 41.1672 120.871 42.3666C120.871 43.5661 120.459 44.563 119.634 45.3919C118.81 46.2193 117.804 46.6338 116.616 46.6338C115.429 46.6338 114.401 46.2225 113.574 45.3967C112.747 44.5709 112.334 43.5755 112.334 42.4059C112.334 41.6256 112.522 40.9034 112.899 40.2362C113.275 39.5705 113.789 39.0493 114.439 38.6709C115.089 38.2941 115.792 38.1057 116.549 38.1057H116.551ZM116.587 38.8954C115.987 38.8954 115.42 39.0524 114.882 39.3648C114.345 39.6773 113.927 40.0996 113.624 40.6302C113.324 41.1609 113.172 41.7512 113.172 42.4027C113.172 43.3683 113.505 44.1831 114.173 44.8472C114.84 45.5113 115.645 45.8441 116.587 45.8441C117.215 45.8441 117.798 45.6918 118.332 45.3857C118.868 45.0795 119.284 44.6619 119.583 44.1313C119.883 43.6006 120.033 43.0119 120.033 42.3635C120.033 41.7151 119.883 41.1358 119.583 40.6145C119.284 40.0933 118.861 39.6773 118.318 39.3633C117.774 39.0509 117.196 38.8939 116.585 38.8939L116.587 38.8954Z" fill="#1A1A1A"/>
<path d="M123.064 46.4297V38.3114H123.24L128.632 44.5347V38.3114H129.431V46.4297H129.249L123.901 40.2817V46.4297H123.064Z" fill="#1A1A1A"/>
<path d="M135.197 38.3098H136.029L137.683 44.1611L140.006 38.3098H140.174L142.469 44.1611L144.151 38.3098H144.977L142.649 46.4281H142.499L140.094 40.2848L137.644 46.4281H137.494L135.197 38.3098Z" fill="#1A1A1A"/>
<path d="M147.051 38.3098H151.694V39.1042H147.861V41.6491H151.661V42.4436H147.861V45.6337H151.661V46.4281H147.051V38.3098Z" fill="#1A1A1A"/>
<path d="M153.662 38.3098H158.305V39.1042H154.472V41.6491H158.272V42.4436H154.472V45.6337H158.272V46.4281H153.662V38.3098Z" fill="#1A1A1A"/>
<path d="M160.266 38.3098H161.092V41.3571L164.33 38.3098H165.417L161.526 41.9522L165.719 46.4281H164.642L161.09 42.6461V46.4281H160.265V38.3098H160.266Z" fill="#1A1A1A"/>
<path d="M162.803 4.70157C163.854 7.44116 164.568 10.2106 166.357 12.5938C169.102 16.2502 172.874 17.6601 177.075 19.0354C177.274 19.1751 177.27 19.5487 177.075 19.6838C174.346 20.7074 171.61 21.428 169.255 23.2225C165.253 26.2729 164.761 29.1852 163.003 33.5356C162.865 33.8778 162.779 34.2766 162.29 33.9861C162.079 33.8605 160.815 30.0141 160.552 29.3956C158.949 25.6292 156.176 22.8833 152.418 21.2867C150.964 20.6697 149.388 20.2866 147.955 19.6351L147.855 19.3132L148.148 18.9631C152.185 17.693 155.797 16.2816 158.499 12.8654C160.39 10.4743 161.151 7.66096 162.198 4.85229C162.317 4.64191 162.594 4.64662 162.806 4.70314L162.803 4.70157Z" fill="#52A8AA"/>
<path d="M179.746 0.633789C180.356 2.68416 181.191 4.49277 183.152 5.54307C183.877 5.93085 184.667 6.08471 185.398 6.42068C185.691 6.5557 185.641 6.66717 185.362 6.80218C184.917 7.01884 184.272 7.14287 183.799 7.34696C182.171 8.04717 181.087 9.13986 180.385 10.7679C180.244 11.096 179.92 12.2971 179.793 12.4541C179.72 12.5451 179.657 12.5655 179.543 12.5404C179.431 12.5169 178.867 10.6878 178.73 10.3974C178.167 9.22464 177.041 8.07857 175.875 7.51495C175.399 7.28416 174.024 6.94819 173.737 6.71741C173.663 6.65932 173.66 6.57297 173.684 6.49918C173.714 6.40498 175.279 5.93556 175.539 5.82253C177.879 4.80048 178.839 3.00601 179.508 0.633789H179.748L179.746 0.633789Z" fill="#52A8AA"/>
<path d="M179.74 26.1975C180.467 28.5855 181.422 30.358 183.797 31.38C184.128 31.5229 185.306 31.8322 185.48 31.975C185.571 32.0488 185.591 32.1116 185.566 32.2262C185.539 32.3502 183.567 32.9641 183.204 33.1541C181.23 34.1855 180.367 35.9926 179.757 38.0476C179.743 38.1261 179.588 38.1152 179.539 38.0995C179.409 38.0571 178.759 35.9784 178.529 35.5624C177.479 33.658 175.734 32.8636 173.731 32.2765C173.652 32.2623 173.663 32.1069 173.679 32.0582C173.715 31.9436 175.614 31.3408 175.93 31.1853C177.943 30.1931 178.924 28.2683 179.503 26.1913L179.74 26.1975Z" fill="#52A8AA"/>
<path d="M164.175 22.2805C164.219 22.4139 164.247 22.5191 164.258 22.596C164.269 22.673 164.255 22.7326 164.214 22.7703C164.173 22.8096 164.101 22.8331 163.998 22.8425C163.894 22.8519 163.752 22.8567 163.572 22.8567C163.392 22.8567 163.237 22.8535 163.132 22.8488C163.027 22.8425 162.947 22.8315 162.89 22.8158C162.836 22.7986 162.796 22.7766 162.774 22.7468C162.753 22.7169 162.734 22.6777 162.72 22.6306L162.237 21.1878H159.547L159.093 22.5913C159.079 22.6431 159.059 22.6871 159.035 22.7216C159.012 22.7562 158.972 22.7844 158.919 22.8048C158.866 22.8253 158.791 22.8394 158.692 22.8472C158.595 22.8551 158.466 22.8582 158.307 22.8582C158.137 22.8582 158.004 22.8519 157.909 22.841C157.813 22.83 157.746 22.8033 157.71 22.7609C157.672 22.7185 157.66 22.6588 157.671 22.5803C157.682 22.5034 157.71 22.3998 157.754 22.2695L159.963 15.9001C159.984 15.8373 160.011 15.7871 160.041 15.7478C160.071 15.7086 160.118 15.6788 160.182 15.6584C160.246 15.638 160.335 15.6254 160.45 15.6191C160.564 15.6128 160.716 15.6113 160.904 15.6113C161.122 15.6113 161.296 15.6144 161.424 15.6191C161.553 15.6254 161.654 15.638 161.726 15.6584C161.798 15.6788 161.85 15.7086 161.881 15.7494C161.913 15.7902 161.939 15.8452 161.961 15.9158L164.176 22.2805H164.175ZM160.887 17.0148H160.88L159.867 20.0668H161.899L160.885 17.0148H160.887Z" fill="white"/>
<path d="M166.639 22.6243C166.639 22.662 166.627 22.695 166.603 22.7248C166.58 22.7546 166.539 22.7782 166.484 22.797C166.429 22.8158 166.354 22.83 166.263 22.841C166.172 22.8519 166.053 22.8582 165.909 22.8582C165.765 22.8582 165.652 22.8519 165.558 22.841C165.464 22.83 165.389 22.8158 165.334 22.797C165.279 22.7782 165.239 22.7546 165.215 22.7248C165.192 22.695 165.179 22.662 165.179 22.6243V15.8436C165.179 15.8059 165.192 15.773 165.215 15.7431C165.239 15.7133 165.279 15.6898 165.337 15.6709C165.395 15.6521 165.469 15.638 165.561 15.627C165.654 15.616 165.77 15.6097 165.911 15.6097C166.052 15.6097 166.172 15.616 166.265 15.627C166.357 15.638 166.431 15.6537 166.486 15.6709C166.54 15.6898 166.581 15.7133 166.605 15.7431C166.628 15.773 166.641 15.8059 166.641 15.8436V22.6243H166.639Z" fill="white"/>
</g>
<defs>
<clipPath id="clip0_6_266">
<rect width="185" height="46" fill="white" transform="translate(0.595703 0.633789)"/>
</clipPath>
</defs>
</svg>